<svg width="32" height="32" viewBox="0 0 32 32" fill="none" xmlns="http://www.w3.org/2000/svg">
<circle cx="16" cy="16" r="16" fill="black"/>
<path d="M16.0151 4.07332C21.7783 4.07332 26.8474 8.2619 27.7771 14.1349C28.807 20.6399 24.3688 26.7476 17.8645 27.7776C17.2327 27.8778 16.6054 27.9257 15.9853 27.9257C10.222 27.9257 5.15291 23.7371 4.22321 17.864C3.19422 11.36 7.63151 5.25226 14.1358 4.22227C14.7676 4.12207 15.395 4.07422 16.0151 4.07422M16.0151 2.41504C15.3038 2.41504 14.5844 2.47191 13.8768 2.58385C10.2933 3.15075 7.1459 5.07984 5.013 8.01546C2.88011 10.9502 2.0181 14.5403 2.58495 18.124C3.09403 21.3377 4.73951 24.2643 7.21992 26.364C9.67324 28.4411 12.7864 29.5848 15.9853 29.5848C16.6965 29.5848 17.4159 29.528 18.1236 29.416C21.707 28.8491 24.8544 26.92 26.9873 23.9844C29.1202 21.0497 29.9822 17.4596 29.4145 13.8759C28.9054 10.6622 27.2599 7.73562 24.7795 5.63591C22.3271 3.55877 19.214 2.41504 16.0151 2.41504Z" fill="white"/>
<path d="M25.0087 15.6844C24.6145 15.6844 24.2758 15.3887 24.2303 14.9885C23.7696 10.875 20.2464 7.77299 16.034 7.77299C11.8216 7.77299 8.32654 10.7922 7.76665 14.9521C7.70929 15.3806 7.31418 15.6817 6.88538 15.6234C6.45658 15.5661 6.15524 15.1713 6.21351 14.7429C6.87992 9.7961 11.0095 6.20654 16.0349 6.20654C21.0603 6.20654 25.239 9.90708 25.7889 14.8138C25.8371 15.2441 25.5276 15.6307 25.097 15.6789C25.0669 15.6826 25.0378 15.6835 25.0087 15.6835V15.6844Z" fill="white"/>
<path d="M6.98245 15.4724C6.83709 15.4724 6.68993 15.4321 6.55992 15.348C6.20059 15.1162 6.09857 14.6409 6.3306 14.2847C6.39199 14.1908 7.86273 11.9766 10.1632 11.709C11.4822 11.5559 12.7625 12.058 13.9696 13.2027C14.2802 13.4971 14.291 13.9849 13.994 14.2919C13.6969 14.5998 13.2049 14.6105 12.8952 14.3161C12.0411 13.507 11.1852 13.1436 10.351 13.2385C8.78002 13.4166 7.64604 15.1072 7.63431 15.1242C7.48534 15.3498 7.23615 15.4733 6.98245 15.4733V15.4724Z" fill="white"/>
<path d="M15.9662 25.7927C10.9549 25.7927 6.76119 22.1746 6.21125 17.3772C6.163 16.9565 6.47256 16.5785 6.90322 16.5314C7.33388 16.4833 7.72083 16.7866 7.76909 17.2073C8.22979 21.2292 11.7534 24.262 15.9653 24.262C20.1771 24.262 23.6734 21.3101 24.2333 17.2429C24.2907 16.824 24.6859 16.5305 25.1147 16.5865C25.5435 16.6425 25.8449 17.0285 25.7866 17.4475C25.1202 22.284 20.9893 25.7936 15.9643 25.7936L15.9662 25.7927Z" fill="white"/>
<path d="M21.3752 20.3175C20.2196 20.3175 19.0957 19.8073 18.0305 18.7968C17.7199 18.5023 17.7091 18.0145 18.0061 17.7074C18.3031 17.3995 18.7951 17.3888 19.1048 17.6833C19.9588 18.4924 20.8146 18.8558 21.6487 18.761C23.2195 18.5828 24.3533 16.892 24.365 16.875C24.5998 16.5197 25.0809 16.4194 25.4402 16.6512C25.7995 16.8831 25.9015 17.3584 25.6695 17.7146C25.6081 17.8086 24.1376 20.023 21.8374 20.2907C21.683 20.3086 21.5295 20.3175 21.3761 20.3175H21.3752Z" fill="white"/>
</svg>
